# xmcd
#
# Track frame offsets: 
#        150
#        13675
#        13987
#        33527
#        53857
#        64232
#        80440
#        93727
#        111565
#        125322
#        140787
#        156725
#
# Disc length: 2271 seconds
#
# Revision: 1
# Processed by: cddbd v1.5.2PL0 Copyright (c) Steve Scherf et al.
# Submitted via: ExactAudioCopyFreeDBPlugin 1.0
#
DISCID=b408dd0c
DTITLE=Patsy Cline - Duets - Volume 1
DYEAR=1999
DGENRE=Country
TTITLE0=That Wonderful Someone (Duet with Bob Carlisle)
TTITLE1=Patsy Cline - Introduction
TTITLE2=There He Goes (Duet with John Berry)
TTITLE3=If I Could Only Stay Asleep (Duet with Beth Nielsen Chapman)
TTITLE4=Too Many Screcets (Duet with Glen Campbell)
TTITLE5=Crazy Dreams Duet with Mila Mason)
TTITLE6=Life Railway To Heven (Duet with Willie Nelson)
TTITLE7=Just Out Of Reach (Duet with Waylon Jennings)
TTITLE8=I Can´t Forget You (Duet with Crystal Gayle)
TTITLE9=Walkin´ After Midnight (Duet with Michelle Wright)
TTITLE10=Hungry For Love (Extended Version)
TTITLE11=How Can I Face Tomorrow (Extended Version)
EXTD=Old Patsy Cline Recordings Remixet With New Duet Partners
EXTT0=
EXTT1=
EXTT2=
EXTT3=
EXTT4=
EXTT5=
EXTT6=
EXTT7=
EXTT8=
EXTT9=
EXTT10=
EXTT11=
PLAYORDER=
